<svg width="268.832" height="268.832" xmlns="http://www.w3.org/2000/svg">

 <g>
  <title>background</title>
  <rect fill="none" id="canvas_background" height="402" width="582" y="-1" x="-1"/>
 </g>
 <g>
  <title>Layer 1</title>
  <g opacity="0.7" id="svg_1">
   <path stroke-width="0" id="svg_2" d="m265.171,125.57687l-80,-80c-4.881,-4.881 -12.797,-4.881 -17.678,0c-4.882,4.882 -4.882,12.796 0,17.678l58.661,58.661l-213.654,0c-6.903,0 -12.5,5.597 -12.5,12.5c0,6.902 5.597,12.5 12.5,12.5l213.654,0l-58.659,58.661c-4.882,4.882 -4.882,12.796 0,17.678c2.44,2.439 5.64,3.661 8.839,3.661s6.398,-1.222 8.839,-3.661l79.998,-80c4.882,-4.882 4.882,-12.796 0,-17.678z"/>
  </g>
  <g id="svg_3"/>
  <g id="svg_4"/>
  <g id="svg_5"/>
  <g id="svg_6"/>
  <g id="svg_7"/>
  <g id="svg_8"/>
  <g id="svg_9"/>
  <g id="svg_10"/>
  <g id="svg_11"/>
  <g id="svg_12"/>
  <g id="svg_13"/>
  <g id="svg_14"/>
  <g id="svg_15"/>
  <g id="svg_16"/>
  <g id="svg_17"/>
 </g>
</svg>