<svg xmlns="http://www.w3.org/2000/svg" width="32" height="32" xmlns:v="https://vecta.io/nano"><path d="M16 1A15.01 15.01 0 0 0 1 16a15.01 15.01 0 0 0 15 15 15.01 15.01 0 0 0 15-15A15.01 15.01 0 0 0 16 1zm7.56 11.98l.01.5c0 5-3.8 10.75-10.76 10.75-2.13 0-4.12-.62-5.8-1.7.3.04.6.05.9.05a7.58 7.58 0 0 0 4.69-1.61c-1.65-.03-3.05-1.13-3.53-2.63.23.05.47.07.7.07a4.09 4.09 0 0 0 1-.13c-1.73-.35-3.03-1.88-3.03-3.7v-.05c.5.3 1.1.46 1.7.48a3.8 3.8 0 0 1-1.68-3.15c0-.7.18-1.34.5-1.9a10.72 10.72 0 0 0 7.79 3.95c-.06-.28-.1-.57-.1-.86 0-2.1 1.7-3.78 3.78-3.78 1.1 0 2.07.46 2.76 1.2a7.43 7.43 0 0 0 2.4-.92c-.28.9-.88 1.63-1.66 2.1.77-.1 1.5-.3 2.17-.6-.5.76-1.14 1.42-1.88 1.96z" fill="#82699d"/></svg>