<svg xmlns="http://www.w3.org/2000/svg" width="23" height="23" xmlns:v="https://vecta.io/nano"><path d="M22 10.75v2.5h-2.66c-.2 1.2-.67 2.27-1.36 3.2l1.42 1.43-1.66 1.65-1.42-1.44c-.9.64-1.94 1.1-3.07 1.28V22h-2.5v-2.64a7.46 7.46 0 0 1-3.16-1.31l-1.44 1.42L4.5 17.8l1.42-1.4a7.49 7.49 0 0 1-1.33-3.16H2v-2.5h2.6c.2-1.17.68-2.24 1.36-3.16L4.6 6.2l1.66-1.64 1.37 1.38a7.29 7.29 0 0 1 3.12-1.27V2h2.5v2.68a7.52 7.52 0 0 1 3.16 1.35l1.44-1.42 1.64 1.66-1.44 1.42c.65.9 1.1 1.94 1.28 3.06H22zM12 7.1c-2.76 0-5 2.23-5 4.98s2.24 4.98 5 4.98 5-2.23 5-4.98-2.24-4.98-5-4.98zm0 8.75c-2.1 0-3.8-1.7-3.8-3.77C8.2 10 9.9 8.3 12 8.3s3.8 1.7 3.8 3.78c0 2.08-1.7 3.77-3.8 3.77zm0-6.24a2.47 2.47 0 0 0-2.48 2.47 2.48 2.48 0 1 0 4.96 0A2.47 2.47 0 0 0 12 9.61z" fill="#a292b3"/></svg>